<svg id="shop_balloon_bg" class="ballon_svg" viewBox="0 0 360 360" style="background-color:#ffffff00" version="1.1" xmlns="http://www.w3.org/2000/svg" xmlns:xlink="http://www.w3.org/1999/xlink" xml:space="preserve">
						<g id="circle">
							<path d="M307.3,52.7C342.4,87.9,360,133.9,360,180c0,46.1-17.6,92.1-52.7,127.3C272.1,342.4,226.1,360,180,360
					c-46.1,0-92.1-17.6-127.3-52.7C17.6,272.1,0,226.1,0,180c0-46.1,17.6-92.1,52.7-127.3C86.9,18.5,131.4,1,176.2,0
					C223.5-1,271.2,16.6,307.3,52.7z" fill="#FFF" />
						</g>
						<g id="circle1">
							<path d="M307.3,52.7C342.4,87.9,360,133.9,360,180c0,46.1-17.6,92.1-52.7,127.3C272.1,342.4,226.1,360,180,360
c-46.1,0-92.1-17.6-127.3-52.7C17.6,272.1,0,226.1,0,180c0-46.1,85.6-26.3,126.4-54.7C194.9,77.6,141.6,11,176.2,0
C221.3-14.2,271.2,16.6,307.3,52.7z" fill="#FFF" />

						</g>
						<g id="circle2">
							<path d="M307.3,52.7C342.4,87.9,360,133.9,360,180c0,46.1-17.6,92.1-52.7,127.3C272.1,342.4,226.1,360,180,360
c-46.1,0-92.1-17.6-127.3-52.7c-35.1-35.1,61.6-87.1,61.6-133.2c0-46.1-96.7-86.2-61.6-121.4C86.9,18.5,131.4,1,176.2,0
C223.5-1,271.2,16.6,307.3,52.7z" fill="#FFF" />

						</g>
						<g id="circle3">
							<path d="M307.3,52.7C342.4,87.9,360,133.9,360,180c0,46.1-17.6,92.1-52.7,127.3C272.1,342.4,226.1,360,180,360
c-46.1,0-9.8-96.1-44.9-131.3C99.9,193.6,0,226.1,0,180c0-46.1,17.6-92.1,52.7-127.3C86.9,18.5,131.4,1,176.2,0
C223.5-1,271.2,16.6,307.3,52.7z" fill="#FFF" />

						</g>
						<g id="circle4">
							<path d="M307.3,52.7C342.4,87.9,360,133.9,360,180c0,46.1-17.6,92.1-52.7,127.3c-35.1,35.1-75.4-63.9-121.4-63.9
c-46.1,0-98,99.1-133.1,63.9C17.6,272.1,0,226.1,0,180c0-46.1,17.6-92.1,52.7-127.3C86.9,18.5,131.4,1,176.2,0
C223.5-1,271.2,16.6,307.3,52.7z" fill="#FFF" />

						</g>
						<g id="circle5">
							<path d="M307.3,52.7c35.1,35.1,52.4,76.1,29.3,116c-27.2,47.2-78.5-9.2-126.2,46.2c-50.4,58.5-3,115.3-47.6,137.6
c-41.2,20.6-85.7-4-120.8-39.1C6.9,278.2,0,226.1,0,180c0-46.1,17.6-92.1,52.7-127.3C86.9,18.5,131.4,1,176.2,0
C223.5-1,271.2,16.6,307.3,52.7z" fill="#FFF" />

						</g>
						<g id="circle6">
							<path d="M307.3,52.7C327,78.4,244,116.5,263.5,180c19.2,62.6,78.9,92.1,43.7,127.3C272.1,342.4,226.1,360,180,360
c-46.1,0-92.1-17.6-127.3-52.7C17.6,272.1,0,226.1,0,180c0-46.1,17.6-92.1,52.7-127.3C86.9,18.5,131.4,1,176.2,0
C223.5-1,276.2,12.2,307.3,52.7z" fill="#FFF" />

						</g>
						<g id="circle7">
							<path d="M232.8,114.9C267.9,150,360,133.9,360,180c0,46.1-17.6,92.1-52.7,127.3C272.1,342.4,226.1,360,180,360
c-46.1,0-92.1-17.6-127.3-52.7C17.6,272.1,0,226.1,0,180c0-46.1,17.6-92.1,52.7-127.3C86.9,18.5,131.4,1,176.2,0
C223.5-1,196.7,78.8,232.8,114.9z" fill="#FFF" />

						</g>
						<g id="circle8">
							<path d="M307.3,52.7C346.4,83.4,360,133.9,360,180c0,46.1-17.6,92.1-52.7,127.3C272.1,342.4,226.1,360,180,360
c-46.1,0-92.1-17.6-127.3-52.7C17.6,272.1,0,226.1,0,180c0-46.1,17.6-92.1,52.7-127.3c34.2-34.2,84.8,39.5,127.3,53.7
C235.1,124.9,275.7,27.9,307.3,52.7z" fill="#FFF" />

						</g>
						<g id="circle1_l">
							<path d="M307.3,52.7C342.4,87.9,360,133.9,360,180c0,46.1-17.6,92.1-52.7,127.3C272.1,342.4,226.1,360,180,360
c-46.1,0-92.1-17.6-127.3-52.7C17.6,272.1-10.6,224.8,0,180C10.6,135-4.5,52.1,22,21c28.1-32.9,110-8.5,154.2-21
C221.7-12.9,271.2,16.6,307.3,52.7z" fill="#FFF" />

						</g>
						<g id="circle2_l">
							<path d="M307.3,52.7C342.4,87.9,360,133.9,360,180c0,46.1-17.6,92.1-52.7,127.3C272.1,342.4,226.1,360,180,360
c-46.1,0-105.9-33.6-128-78.2C15.1,207.2,0,208,0,180c0-35.1,21.2-36.7,57.4-106.7C79.6,30.4,131.4,1,176.2,0
C223.5-1,271.2,16.6,307.3,52.7z" fill="#FFF" />

						</g>
						<g id="circle3_l">
							<path d="M307.3,52.7C342.4,87.9,360,133.9,360,180c0,46.1-17.6,92.1-52.7,127.3c-35.1,35.1-106.8,59.3-151.4,47.6
c-63.4-16.7-100.8-3.1-124.6-25.4C5.4,305.3,18.8,256.3,2.9,193C-8.3,148.3,17.6,87.9,52.7,52.7C86.9,18.5,131.4,1,176.2,0
C223.5-1,271.2,16.6,307.3,52.7z" fill="#FFF" />

						</g>
						<g id="circle4_l">
							<path d="M307.3,52.7C342.4,87.9,360,133.9,360,180c0,46.1-39,123-87.1,135.5c-65.5,17-62.4,44.5-92.9,44.5
c-37.2,0-12.6-23.6-94-45.9C38,301,0,226.1,0,180c0-46.1,17.6-92.1,52.7-127.3C86.9,18.5,131.4,1,176.2,0
C223.5-1,271.2,16.6,307.3,52.7z" fill="#FFF" />

						</g>
						<g id="circle5_l">
							<path d="M307.3,52.7c35.1,35.1,49.1,110.2,42.5,155.8c-10.6,74,4.5,90.2-17,116.4c-18.7,22.7-42.4,6.9-115,24.2
c-44.8,10.7-129.9-6.6-165-41.8C17.6,272.1,0,226.1,0,180c0-46.1,17.6-92.1,52.7-127.3C86.9,18.5,131.4,1,176.2,0
C223.5-1,271.2,16.6,307.3,52.7z" fill="#FFF" />

						</g>
						<g id="circle6_l">
							<path d="M299.7,84.1c33.1,67.7,56.2,58.5,56.2,95.9c0,31.8-17.7,11.8-45.4,81c-18.5,46.2-84.4,99-130.5,99
c-46.1,0-92.1-17.6-127.3-52.7C17.6,272.1,0,226.1,0,180c0-46.1,17.6-92.1,52.7-127.3C86.9,18.5,131.4,1,176.2,0
C223.5-1,277.3,38.2,299.7,84.1z" fill="#FFF" />

						</g>
						<g id="circle7_l">
							<path d="M328.2,27.2c21.5,23.1-5.4,58.5,5.4,126.2c7.2,45.5,8.9,118.8-26.3,153.9C272.1,342.4,226.1,360,180,360
c-46.1,0-92.1-17.6-127.3-52.7C17.6,272.1,0,226.1,0,180c0-46.1,17.6-92.1,52.7-127.3c34.2-34.2,101.4-31.5,146.2-32.5
C246.3,19.3,306,3.4,328.2,27.2z" fill="#FFF" />

						</g>
						<g id="circle8_l">
							<path d="M263.5,53.3C322,65.6,360,133.9,360,180c0,46.1-17.6,92.1-52.7,127.3C272.1,342.4,226.1,360,180,360
c-46.1,0-92.1-17.6-127.3-52.7C17.6,272.1,0,226.1,0,180C0,133.9,35.1,76.4,90.5,58C152.9,37.1,131.4,1,176.2,0
C223.5-1,211.3,42.4,263.5,53.3z" fill="#FFF" />

						</g>
						<g id="circle_l_r">
							<path d="M307.3,52.7C342.4,87.9,352,138,352,184.1c0,46.1-9.6,88-44.7,123.2C272.1,342.4,226.1,360,180,360
c-46.1,0-92.1-17.6-127.3-52.7C17.6,272.1,12,220.9,12,174.9c0-46.1,5.6-87,40.7-122.2C86.9,18.5,131.4,1,176.2,0
C223.5-1,271.2,16.6,307.3,52.7z" fill="#FFF" />

						</g>
						<g id="circle_lt_rb">
							<path d="M307.3,52.7C342.4,87.9,360,133.9,360,180c0,46.1-31.3,88.2-66.5,123.3C258.4,338.5,226.1,360,180,360
c-46.1,0-92.1-17.6-127.3-52.7C17.6,272.1-6,225.7,0,180c5.9-44.5,32.8-88,52.7-127.3C74.6,9.6,131.4,1,176.2,0
C223.5-1,271.2,16.6,307.3,52.7z" fill="#FFF" />

						</g>
						<g id="circle_t_b">
							<path d="M307.3,52.7C342.4,87.9,360,133.9,360,180c0,46.1-17.6,92.1-52.7,127.3c-35.1,35.1-107.7,39.1-153.7,39.1
c-46.1,0-65.7-4-100.8-39.1C17.6,272.1,0,226.1,0,180c0-46.1,17.6-92.1,52.7-127.3c34.2-34.2,78.4-37.7,123.1-38.6
C223.2,13.1,271.2,16.6,307.3,52.7z" fill="#FFF" />

						</g>
						<g id="circle_rt_lb">
							<path d="M295.1,59.5C330.2,94.6,360,133.9,360,180c0,46.1-17.6,92.1-52.7,127.3C272.1,342.4,226.1,360,180,360
c-46.1,0-117.6-4-127.3-52.7C42.3,254.9,3.7,223.5,0,180c-3.9-45.9,17.6-92.1,52.7-127.3C86.9,18.5,131.4,1,176.2,0
C223.5-1,259,23.4,295.1,59.5z" fill="#FFF" />

						</g>
						<g id="circle_lt_rt">
							<path d="M307.3,52.7c47,16.2,52.7,81.2,52.7,127.3c0,46.1-17.6,92.1-52.7,127.3C272.1,342.4,226.1,360,180,360
c-46.1,0-92.1-17.6-127.3-52.7C17.6,272.1,0,226.1,0,180c0-46.1,31.5-86.9,66.6-122C100.8,23.8,131.4-2.2,176.2,0
C222.3,2.3,263.7,37.7,307.3,52.7z" fill="#FFF" />

						</g>

					</svg>