<?xml version="1.0" encoding="UTF-8"?>
<svg id="Layer_1" xmlns="http://www.w3.org/2000/svg" version="1.1" viewBox="0 0 72 72">
  <!-- Generator: Adobe Illustrator 29.4.0, SVG Export Plug-In . SVG Version: 2.1.0 Build 152)  -->
  <defs>
    <style>
      .st0 {
        fill: #fff;
      }

      .st0, .st1 {
        fill-rule: evenodd;
      }
    </style>
  </defs>
  <path class="st1" d="M8,72h56c4.4,0,8-3.6,8-8V8c0-4.4-3.6-8-8-8H8C3.6,0,0,3.6,0,8v56c0,4.4,3.6,8,8,8Z"/>
  <path class="st0" d="M62,62h-10.7v-18.2c0-5-1.9-7.8-5.8-7.8s-6.5,2.9-6.5,7.8v18.2h-10.3V27.3h10.3v4.7s3.1-5.7,10.5-5.7,12.6,4.5,12.6,13.8v21.9ZM16.3,22.8c-3.5,0-6.3-2.9-6.3-6.4s2.8-6.4,6.3-6.4,6.3,2.9,6.3,6.4-2.8,6.4-6.3,6.4ZM11,62h10.7V27.3h-10.7v34.7Z"/>
</svg>