<?xml version="1.0" encoding="UTF-8"?>
<svg id="Layer_1" xmlns="http://www.w3.org/2000/svg" version="1.1" viewBox="0 0 600 530">
  <!-- Generator: Adobe Illustrator 29.4.0, SVG Export Plug-In . SVG Version: 2.1.0 Build 152)  -->
  <path d="M135.7,44c66.5,49.9,138,151.1,164.3,205.5,26.3-54.3,97.8-155.5,164.3-205.5,48-36,125.7-63.9,125.7,24.8s-10.2,148.8-16.1,170.1c-20.7,74-96.1,92.9-163.2,81.4,117.3,20,147.1,86.1,82.7,152.2-122.4,125.6-175.9-31.5-189.6-71.8-2.5-7.4-3.7-10.8-3.7-7.9,0-2.9-1.2.5-3.7,7.9-13.7,40.3-67.2,197.4-189.6,71.8-64.4-66.1-34.6-132.3,82.7-152.2-67.1,11.4-142.6-7.4-163.2-81.4-6-21.3-16.1-152.4-16.1-170.1,0-88.7,77.7-60.8,125.7-24.8h0Z"/>
</svg>