<?xml version="1.0" encoding="UTF-8"?>
<svg id="Layer_1" xmlns="http://www.w3.org/2000/svg" version="1.1" viewBox="0 0 68 76.2">
  <!-- Generator: Adobe Illustrator 29.3.0, SVG Export Plug-In . SVG Version: 2.1.0 Build 146)  -->
  <defs>
    <style>
      .st0 {
        fill: #fff;
      }

      .st1 {
        fill: #c9967c;
      }
    </style>
  </defs>
  <g>
    <polygon class="st0" points="62.9 2 59.1 10.2 62.9 17.4 5 17.4 9.6 9.5 5 2 62.9 2"/>
    <rect class="st1" x="2" y="68.5" width="64" height="5.7"/>
    <polygon class="st1" points="62.9 17.4 66 68.5 2 68.5 5 17.4 62.9 17.4"/>
  </g>
  <path d="M68,68.5s0,0,0,0l-3-51.1c0-.3,0-.6-.2-.8l-3.4-6.3,3.4-7.3c.3-.6.2-1.3-.1-1.9-.4-.6-1-.9-1.7-.9H5c-.7,0-1.4.4-1.7,1s-.3,1.4,0,2l3.9,6.5-3.9,6.9c-.2.3-.2.6-.3.9L0,68.4s0,0,0,0c0,0,0,0,0,0v5.7c0,.5.2,1,.6,1.4.4.4.9.6,1.4.6h64c.5,0,1-.2,1.4-.6.4-.4.6-.9.6-1.4v-5.7s0,0,0,0ZM7,18.4h54l2.9,49.1H4.1l2.9-49.1ZM43.3,4c-.5,1.6-1.3,3.1-2.5,4.2-1.8,1.8-4.2,2.8-6.9,2.8-2.7,0-5.1-1.1-6.9-2.8-1.2-1.2-2-2.6-2.5-4.2h18.7ZM21.4,4c1.2,5.8,6.4,10.2,12.6,10.2,6.2,0,11.4-4.4,12.6-10.2h13.2l-2.5,5.4c-.3.6-.3,1.2,0,1.8l2.8,5.2H7.9l3.4-5.9c.4-.6.4-1.4,0-2l-2.7-4.5h12.8ZM4,72.2v-2.7h60v2.7H4Z"/>
</svg>