<?xml version="1.0" encoding="UTF-8"?>
<svg id="Layer_1" xmlns="http://www.w3.org/2000/svg" version="1.1" viewBox="0 0 68 76.2">
  <!-- Generator: Adobe Illustrator 29.3.0, SVG Export Plug-In . SVG Version: 2.1.0 Build 146)  -->
  <defs>
    <style>
      .st0 {
        fill: #fff;
      }

      .st1 {
        fill: #fce8bd;
      }
    </style>
  </defs>
  <path class="st0" d="M66,6.4s-8.6,3-32,3S2,6.4,2,6.4C12.1,1,49,0,66,6.4Z"/>
  <path class="st1" d="M34,9.4C10.6,9.4,2,6.4,2,6.4v67.8h64V6.4s-8.6,3-32,3ZM34,12.1c2,0,3.6,1.6,3.6,3.6s-1.6,3.6-3.6,3.6-3.6-1.6-3.6-3.6,1.6-3.6,3.6-3.6Z"/>
  <g>
    <path d="M68,6.4c0-.8-.5-1.5-1.3-1.8-4.3-1.6-9.7-2.7-15.5-3.5C45.3.3,39,0,32.8,0c-6.6,0-13.1.4-18.6,1.2-2.8.4-5.3.9-7.5,1.4-2.2.6-4.1,1.2-5.6,2.1C.4,5,0,5.7,0,6.4c0,0,0,0,0,0v67.8c0,.5.2,1,.6,1.4s.9.6,1.4.6h64c.5,0,1-.2,1.4-.6s.6-.9.6-1.4V6.4s0,0,0,0ZM7.7,6.5c3-.8,6.9-1.4,11.2-1.8,4.3-.4,9.1-.6,13.9-.6,6,0,12.2.3,17.8,1.1,3.4.4,6.5,1,9.3,1.7-4.9.8-13.2,1.7-26,1.7-11.7,0-19.6-.7-24.6-1.5-.8-.1-1.5-.2-2.1-.3.1,0,.3,0,.4-.1ZM64,72.2H4s0-2.7,0-2.7h60v2.7ZM4,67.5V21.3c.1,0,.2,0,.4,0,.5,0,1-.3,1.1-.9,0-.5-.3-1-.9-1.1-.2,0-.4,0-.6,0V8c3.9.9,13.2,2.4,30,2.4,16.8,0,26.1-1.5,30-2.4v11.2c-.2,0-.4,0-.6,0-.5,0-.9.6-.9,1.1,0,.5.6.9,1.1.9.1,0,.2,0,.4,0v46.3H4Z"/>
    <path d="M16.2,21.4c0-.6-.4-1-.9-1.1-1.9-.2-3.7-.3-5.3-.5-.5,0-1,.3-1.1.9,0,.5.3,1,.9,1.1,1.6.2,3.4.3,5.4.5.6,0,1-.4,1.1-.9Z"/>
    <path d="M20.5,22.7c1.7.1,3.5.2,5.4.3.6,0,1-.4,1-1,0-.6-.4-1-1-1-1.8,0-3.6-.2-5.4-.3-.6,0-1,.4-1.1.9,0,.6.4,1,.9,1.1Z"/>
    <path d="M42.1,23c1.9,0,3.7-.2,5.4-.3.6,0,1-.5.9-1.1s-.5-1-1.1-.9c-1.7.1-3.5.2-5.4.3-.6,0-1,.5-1,1,0,.6.5,1,1,1Z"/>
    <path d="M58,19.9c-1.6.2-3.4.3-5.3.5-.6,0-1,.5-.9,1.1,0,.6.5,1,1.1.9h0c2-.2,3.8-.3,5.4-.5.5,0,1-.5.9-1.1,0-.5-.5-1-1.1-.9Z"/>
    <path d="M34,21.2c-.9,0-1.8,0-2.7,0-.6,0-1,.4-1,1,0,.6.4,1,1,1,.9,0,1.8,0,2.7,0s1.8,0,2.7,0c.6,0,1-.5,1-1s-.5-1-1-1c-.9,0-1.8,0-2.7,0Z"/>
    <path d="M34,20.2c2.5,0,4.6-2,4.6-4.6,0-2.5-2-4.6-4.6-4.6-2.5,0-4.6,2-4.6,4.6,0,2.5,2,4.6,4.6,4.6ZM34,13.1c1.4,0,2.6,1.1,2.6,2.6,0,1.4-1.1,2.6-2.6,2.6-1.4,0-2.6-1.1-2.6-2.6,0-1.4,1.1-2.6,2.6-2.6Z"/>
    <rect x="12.2" y="29.2" width="43.5" height="6.4"/>
    <rect x="12.2" y="41.9" width="43.5" height="6.4"/>
    <rect x="12.2" y="54.6" width="43.5" height="6.4"/>
  </g>
</svg>